<?xml version="1.0" encoding="UTF-8"?>
<svg width="24px" height="24px" viewBox="0 0 24 24" version="1.1" xmlns="http://www.w3.org/2000/svg" xmlns:xlink="http://www.w3.org/1999/xlink">
    <title>Slice</title>
    <g id="Fresh-Design-Health-sep-ATF-2-SEP-2020" stroke="none" stroke-width="1" fill="none" fill-rule="evenodd">
        <rect id="Rectangle" x="2" y="2" width="20" height="20"></rect>
        <path d="M15.6505542,13.4787158 C17.0150651,13.4787158 18.2519982,14.0336103 19.147856,14.9294695 C20.0437065,15.8253214 20.598602,17.0622475 20.598602,18.4267718 L20.598602,18.4267718 L20.598602,20.5124874 C20.598602,20.7428805 20.504979,20.9510515 20.354234,21.1017965 C20.2029863,21.2530442 19.9942125,21.3466532 19.7644362,21.3466532 L19.7644362,21.3466532 L5.23416583,21.3466532 C5.00436448,21.3466532 4.79559357,21.2530606 4.6443549,21.1018219 C4.49360646,20.9510734 4.4,20.7428904 4.4,20.5124874 L4.4,20.5124874 L4.4,18.4267677 C4.4,17.0622333 4.95488087,15.8252976 5.85073449,14.929444 C6.74657987,14.0335986 7.98350541,13.4787158 9.34805191,13.4787158 L9.34805191,13.4787158 Z M12.6309248,2.4 C13.7673296,2.4 14.797658,2.86249279 15.5438638,3.60937822 C16.2899279,4.35612188 16.7520815,5.38725178 16.7520815,6.5252747 C16.7520815,7.78337221 16.2134624,9.18671065 15.3783435,10.2414386 C14.647286,11.1647404 13.6824657,11.8353486 12.6309248,11.8353486 C11.5793514,11.8353486 10.6145374,11.1647582 9.88349215,10.2414718 C9.04837007,9.18673979 8.50976809,7.78338496 8.50976809,6.5252747 C8.50976809,5.38725178 8.97192167,4.35612188 9.7179858,3.60937822 C10.4641916,2.86249279 11.49452,2.4 12.6309248,2.4 Z" id="Combined-Shape" stroke="#0091FF" stroke-width="0.8" fill="#F2F8FF"></path>
    </g>
</svg>