<?xml version="1.0" encoding="UTF-8"?>
<svg width="24px" height="24px" viewBox="0 0 24 24" version="1.1" xmlns="http://www.w3.org/2000/svg" xmlns:xlink="http://www.w3.org/1999/xlink">
    <title>Slice Copy</title>
    <g id="Fresh-Design-Health-sep-ATF-2-SEP-2020" stroke="none" stroke-width="1" fill="none" fill-rule="evenodd">
        <rect id="Rectangle-Copy-3" x="2" y="2" width="20" height="20"></rect>
        <path d="M11.9771044,11.8889724 C16.1084974,11.8889724 19.514699,15.6687575 19.9322334,20.5253417 C19.7784049,21.250533 19.1411156,21.7779449 18.3939488,21.7779449 L5.5602601,21.7779449 C4.81309329,21.7779449 4.17580395,21.250533 4,20.5253417 C4.43950989,15.6687575 7.84571151,11.8889724 11.9771044,11.8889724 Z M12.0650064,2 C14.2405804,2 15.8667669,3.82396603 16.1304729,5.84571151 C16.3941788,7.84548149 18.5477772,7.44992259 19.294944,7.25214314 C17.8225859,9.12006016 15.55911,10.1529084 12.9879772,10.2408104 L12.0650064,10.2408104 L12.0650064,10.2408104 C9.8015305,10.2408104 7.97756447,8.39486885 7.97756447,6.13139293 C7.97756447,3.84594152 9.8015305,2 12.0650064,2 Z" id="Combined-Shape" stroke="#0091FF" stroke-width="0.8" fill="#F2F8FF"></path>
    </g>
</svg>