<svg width="75" height="72" xmlns="http://www.w3.org/2000/svg" xmlns:xlink="http://www.w3.org/1999/xlink"><defs><circle id="a" cx="38" cy="36" r="36"/></defs><g fill="none" fill-rule="evenodd"><mask id="b" fill="#fff"><use xlink:href="#a"/></mask><use fill="#0D9DA2" opacity=".1" xlink:href="#a"/><g mask="url(#b)"><path d="M16.589 109.988h40.979l-1.962-16 4.387-35.456c0-2.425-1.6-4.541-3.819-5.109l-5.058-1.239a58.777 58.777 0 00-27.456 0l-5.058 1.239c-2.271.516-3.82 2.632-3.82 5.11l4.594 35.662-2.787 15.793z" fill="#7B3F65"/><path d="M18.55 56.262c-.206-1.549-1.91-1.858-2.993-.723C10.344 60.959 5.13 67.203.693 83.46c-2.27 8.413 15.741 31.999 15.741 31.999l1.497-13.213s-3.82-9.857-6.297-14.605l11.664-7.639-4.748-23.74z" fill="#7B3F65"/><path d="M25.879 32.314c1.084 7.123 7.019 15.741 14.657 15.277 7.174-.465 7.742-6.09 8.103-13.316.62-13.521-7.535-18.012-13.419-17.134-5.935.929-10.425 8.051-9.341 15.173z" fill="#FFC2A5"/><path d="M44.149 37.682c-.052.67-1.91 9.341-.826 14.554.31 1.548-.464 3.148-1.961 3.716-2.323.877-5.677 1.548-8.877-.207-1.394-.774-2.116-2.425-1.755-3.974.723-3.096 1.652-9.083.413-15.07-1.806-8.619 13.728-7.483 13.006.98z" fill="#FFC2A5"/><path d="M49.155 13.322s3.252 6.709-1.806 10.631c-2.942 2.271-14.503-1.6-16.722.362-2.27 1.96-1.445 3.767-1.394 5.212 0 .723-.154 1.394-.567 1.962-.826 1.29-1.755 5.212 1.651 10.786 0 0-14.812-6.76-7.225-20.438 5.213-9.444 16.98-6.348 19.921-5.728.568.103 1.084.154 1.652.051 1.239-.206 3.2-.826 4.49-2.838z" fill="#18293B"/><path d="M56.02 55.642c.206-1.548 1.909-1.858 2.993-.722 5.212 5.419 10.425 11.664 14.864 27.92 2.27 8.413-2.426 32.154-2.426 32.154l-7.69-3.303s-1.032-18.734-.93-24.721L51.169 79.33l4.851-23.689z" fill="#7B3F65"/><path d="M38.627 46.404c.464 0 .877.464 1.29.62a2.912 2.912 0 001.755-.052c.206-.052.464.206.258.413-.62.412-1.342.567-2.065.412-.567-.103-1.496-.464-1.496-1.135 0-.155.154-.258.258-.258z" fill="#ACD1DA"/><path d="M26.601 36.753c.723 1.238 2.065 1.755 3.045 1.238.981-.567 1.187-2.012.465-3.251-.723-1.239-2.065-1.755-3.045-1.239-.98.568-1.187 2.013-.465 3.252z" fill="#FFC2A5"/><path d="M17.466 55.436c1.91 3.045 3.407 7.587 2.374 11.2-.051.257-.412.154-.412-.052-.207-1.91-.052-3.716-.413-5.626a21.927 21.927 0 00-1.807-5.367c-.103-.155.155-.31.258-.155zM57.62 55.436c.05-.31.515-.207.515.051.104 2.633.31 5.161.723 7.742.052.206-.258.361-.361.155-1.136-2.374-1.445-5.316-.878-7.948zM47.09 54.61c.31-.62.414-1.239.62-1.91.052-.206.361-.206.465 0 .206.671.051 1.497-.207 2.116-.258.62-.62 1.394-1.29 1.446-.155 0-.31-.155-.258-.259-.052-.516.413-.929.67-1.393zM39.556 59.358c.516-.206 1.135-.103 1.703-.31.567-.206 1.084-.516 1.6-.877.103-.051.258.052.206.155-.258.67-.826 1.135-1.548 1.393-.671.258-1.497.413-2.065-.051-.103-.052 0-.258.104-.31zM31.091 57.965c.62.361 1.033.877 1.652 1.238.67.413 1.29.723 2.064.826.207.052.155.361-.051.361-1.445.052-3.665-.567-3.923-2.27 0-.104.104-.207.258-.155zM26.601 52.907c.104-.103.207-.103.31-.052.361.258.413.774.516 1.136.155.516.413.929.723 1.393.206.31-.258.568-.465.361-.413-.36-.826-.825-1.084-1.341-.154-.465-.413-1.136 0-1.497z" fill="#673565"/><path d="M29.233 29.527s.31 7.897 2.994 9.91c2.684 2.012 7.69-1.188 10.116-1.136 2.425.052 5.832 1.806 5.832 1.806s.412 9.548-6.503 8.826c-6.916-.723-10.116-3.458-11.303-6.658-1.136-3.2-2.735-10.012-2.735-10.012l1.6-2.736z" fill="#18293B"/><path d="M44.923 41.707c-.103 1.497-1.755 2.633-3.716 2.633-1.961-.052-3.561-1.24-3.613-2.736l.413.052c2.22.413 4.542.464 6.813.103l.103-.052z" fill="#F77574"/><path d="M32.485 31.489s.155 2.735.723 3.251c.567.516 1.238 1.393 6.193-.258 0 0 .826-.98.67-3.355l-1.496-.774s-2.22-.155-2.89.103c-.671.258-3.303.052-3.2 1.033zM50.084 29.476s.258 2.735-.206 3.303c-.516.62-1.033 1.6-6.142.98 0 0-.98-.825-1.187-3.148l1.342-1.084s2.168-.567 2.89-.464c.723.155 3.252-.516 3.303.413z" fill="#333846" opacity=".46"/><path d="M43.323 29.476c-.413.206-.877.31-1.342.361l-.722.103-.207.052-.464.051c-.516.052-.98.104-1.497 0-1.806-.31-7.38.826-7.38.826l.155 1.497c.36.155.464.413.567.826.104.413.258 1.083.413 1.445.31.722 1.136 1.187 1.91 1.084 1.084-.155 2.116-.31 3.2-.465.516-.052 1.083-.155 1.496-.516a2.34 2.34 0 00.568-.98c.103-.362.155-.775.258-1.136.103-.413.207-1.239.62-1.445.31-.155.774-.258 1.135-.155.361.103.722.826.877 1.239.155.36.31.722.465 1.032.206.31.413.62.774.826.464.258 1.032.206 1.548.154 1.084-.103 2.116-.258 3.2-.36.723-.104 1.445-.775 1.6-1.55.103-.412.103-1.083.103-1.547 0-.31.052-.517.155-.723.103-.155.207-.361.155-.568l-.052-.31c-.051-.464-.464-.825-.929-.773-1.754.103-5.316.464-6.606 1.032zm-3.664 4.129c-.103.31-.361.67-.62.877-.567.516-2.528.67-4.18.826-.826.051-1.6-.568-1.91-1.445-.206-.568-.206-1.187-.206-1.807 0-.361.052-.62.361-.774.878-.413 1.91-.568 2.839-.67.516-.052 1.032-.104 1.548-.104.62 0 1.187.103 1.807.31.154.051.31.103.412.206.104.103.207.31.207.465 0 .67-.052 1.393-.258 2.116zm10.374-1.962c-.104.878-.723 1.755-1.549 1.858-1.651.31-3.56.62-4.232.258-.258-.154-.62-.413-.774-.67-.361-.62-.568-1.342-.723-2.065 0-.155 0-.361.104-.516.103-.103.206-.207.36-.31a8.558 8.558 0 011.704-.774c.516-.155.98-.258 1.497-.31.98-.154 1.961-.258 2.942-.051.31.051.412.31.516.67.155.672.258 1.291.155 1.91z" fill="#362927" fill-rule="nonzero"/><path fill="#362927" d="M31.66 30.87L27.065 33.5l4.954-1.238z"/></g></g></svg>