<svg id="Layer_1" data-name="Layer 1" xmlns="http://www.w3.org/2000/svg" xmlns:xlink="http://www.w3.org/1999/xlink" viewBox="0 0 350 350"><defs><style>.cls-1{fill:#eff6ff;}.cls-2{fill:url(#linear-gradient);}.cls-3{fill:url(#linear-gradient-2);}.cls-4{fill:url(#linear-gradient-3);}.cls-5{fill:url(#linear-gradient-4);}.cls-6{fill:url(#linear-gradient-5);}.cls-7{fill:url(#linear-gradient-6);}.cls-8{fill:url(#linear-gradient-7);}.cls-9{fill:#d9e7fb;}.cls-10{fill:url(#linear-gradient-8);}.cls-11{fill:#fff;}.cls-12{fill:#107;}.cls-13{fill:#cce1ff;}.cls-14{fill:url(#linear-gradient-9);}.cls-15{fill:url(#linear-gradient-10);}.cls-16{fill:url(#linear-gradient-11);}.cls-17{fill:url(#linear-gradient-12);}</style><linearGradient id="linear-gradient" x1="-208.47" y1="189.16" x2="-208.44" y2="190.67" gradientTransform="matrix(215.09, 0, 0, -215.09, 45009.02, 41077.3)" gradientUnits="userSpaceOnUse"><stop offset="0" stop-color="#fff"/><stop offset="1" stop-color="#eff6ff"/></linearGradient><linearGradient id="linear-gradient-2" x1="-207.58" y1="193.01" x2="-206.5" y2="192.91" gradientTransform="matrix(90.29, 0, 0, -43.43, 18826.28, 8452.82)" gradientUnits="userSpaceOnUse"><stop offset="0" stop-color="#8bbbff"/><stop offset="1" stop-color="#0260f5"/></linearGradient><linearGradient id="linear-gradient-3" x1="-205.7" y1="192.67" x2="-207.71" y2="193.52" gradientTransform="matrix(66.29, 0, 0, -43.43, 13809.87, 8453.01)" xlink:href="#linear-gradient-2"/><linearGradient id="linear-gradient-4" x1="-112.29" y1="223.46" x2="-112.06" y2="222.54" gradientTransform="matrix(2.29, 0, 0, -4.57, 388.97, 1065.61)" gradientUnits="userSpaceOnUse"><stop offset="0" stop-color="#0643cf"/><stop offset="1" stop-color="#120078"/></linearGradient><linearGradient id="linear-gradient-5" x1="-14.91" y1="194.73" x2="-14.9" y2="194.27" gradientTransform="matrix(1.14, 0, 0, -29.72, 148.94, 5883.16)" xlink:href="#linear-gradient-2"/><linearGradient id="linear-gradient-6" x1="-204.96" y1="193.33" x2="-203.99" y2="192.5" gradientTransform="matrix(44.58, 0, 0, -43.43, 9271.02, 8452.82)" gradientUnits="userSpaceOnUse"><stop offset="0" stop-color="#85b7ff"/><stop offset="1" stop-color="#0663f5"/></linearGradient><linearGradient id="linear-gradient-7" x1="-196.23" y1="199.27" x2="-195.34" y2="198.42" gradientTransform="matrix(16.34, 0, 0, -15.77, 3325.63, 3263.33)" xlink:href="#linear-gradient-4"/><linearGradient id="linear-gradient-8" x1="-207.14" y1="190.04" x2="-208.59" y2="192.02" gradientTransform="matrix(115.05, 0, 0, -135.6, 24086.25, 26021.34)" xlink:href="#linear-gradient-2"/><linearGradient id="linear-gradient-9" x1="-207.83" y1="190.99" x2="-207.13" y2="190.11" gradientTransform="matrix(115.05, 0, 0, -135.6, 24120.54, 25997.96)" xlink:href="#linear-gradient-6"/><linearGradient id="linear-gradient-10" x1="-207.37" y1="190.87" x2="-207" y2="189.95" gradientTransform="matrix(95.22, 0, 0, -147.36, 19840.99, 28286.11)" xlink:href="#linear-gradient-4"/><linearGradient id="linear-gradient-11" x1="-207.58" y1="190.79" x2="-207.25" y2="190.01" gradientTransform="matrix(111.09, 0, 0, -126.95, 23162.26, 24429.81)" gradientUnits="userSpaceOnUse"><stop offset="0" stop-color="#e3efff"/><stop offset="1" stop-color="#3c8cff"/></linearGradient><linearGradient id="linear-gradient-12" x1="-207.82" y1="191.01" x2="-207.1" y2="190.14" gradientTransform="matrix(108.82, 0, 0, -126.95, 22683.83, 24429.81)" xlink:href="#linear-gradient-6"/></defs><path class="cls-1" d="M345.5,175.13h-5.07a166.27,166.27,0,1,0-332.54,0H2.83a171.34,171.34,0,1,1,342.67,0ZM62.81,306.32l3.26-3.88a167.39,167.39,0,0,0,232.79-17.57l3.81,3.35a172.48,172.48,0,0,1-239.86,18.1Z"/><path class="cls-1" d="M66.23,68.22,80.55,82.54a131.67,131.67,0,1,0,186.21,186.2l14.32,14.33A151.92,151.92,0,1,1,66.23,68.22Zm258.11,93.89-20.19,1.56A129.87,129.87,0,0,0,164.59,44.09l-1.51-20.2A150.11,150.11,0,0,1,324.34,162.11Z"/><circle class="cls-2" cx="174.16" cy="175.13" r="116.47"/><path class="cls-3" d="M83,94.22A19,19,0,0,1,95.35,89.9a21.79,21.79,0,0,1,13,4.32q8.49-6.5,23.46-6.5t23.59,6.5A21,21,0,0,1,168,89.81a22,22,0,0,1,12.82,4.41q-2.3-16.15-6.49-22.91c-9.14-14.75-25.77-24.13-42.54-24.13a49.59,49.59,0,0,0-43.54,26Q84.78,79.4,83,94.22Z"/><path class="cls-4" d="M109,94.22q8.4-6.5,23.24-6.5t23.38,6.5a20.7,20.7,0,0,1,12.47-4.41,21.71,21.71,0,0,1,12.7,4.41q-2.28-16.15-6.43-22.91c-9.06-14.75-25.54-24.13-42.16-24.13Q110.6,57.4,109,94.22Z"/><path class="cls-5" d="M131.29,43.47h2.47v5h-2.47Z"/><path class="cls-6" d="M131.29,86.79h1.24V119h-1.24Z"/><path class="cls-7" d="M155.79,94.22a20.51,20.51,0,0,1,12.39-4.41,21.48,21.48,0,0,1,12.62,4.41q-2.27-16.15-6.39-22.91c-9-14.75-25.37-24.13-41.88-24.13Q154.31,60.1,155.79,94.22Z"/><path class="cls-8" d="M129.68,119h4.08v10.18q-2,6.87-9.14,6.9-6.34,0-8.55-6.93v-2.7c.22-.71.85-1.06,1.9-1.06s1.59.39,1.6,1.16q.69,5.67,5.25,5.67t4.86-5.67Z"/><rect class="cls-9" x="327.77" y="151.5" width="13.85" height="5.7" rx="1.08"/><rect class="cls-9" x="266.83" y="92.36" width="13.85" height="5.7" rx="1.08"/><rect class="cls-10" x="148.84" y="109.3" width="124.61" height="146.86" rx="3.25"/><path class="cls-11" d="M187.41,134.52h69.72V139H187.41Zm0,11.87h69.72v4.45H187.41v-4.46Zm-23.73,11.86h93.45v4.45H163.68Z"/><circle class="cls-12" cx="173.32" cy="142.68" r="6.68"/><path class="cls-13" d="M163.68,182h93.45v4.45H163.68Zm0,10.38h93.45v4.45H163.68v-4.45Zm0,10.39h93.45v4.45H163.68Zm0,10.38h93.45v4.45H163.68Z"/><rect class="cls-14" x="185.98" y="83.98" width="124.61" height="146.86" rx="3.25"/><path class="cls-11" d="M224.55,109.2h69.72v4.45H224.55Zm0,11.86h69.72v4.46H224.55v-4.46Zm-23.74,11.87h93.46v4.45H200.81Z"/><circle class="cls-12" cx="210.46" cy="117.36" r="6.68"/><path class="cls-13" d="M200.81,156.67h93.46v4.45H200.81Zm0,10.38h93.46v4.45H200.81v-4.45Zm0,10.38h93.46v4.46H200.81Zm0,10.39h93.46v4.45H200.81Z"/><path class="cls-15" d="M62.75,143.58c0-1.21.74-1.77,1.66-1.24l33.43,19.21a3.91,3.91,0,0,1,1.66,3.14v11.57l63,36.21a8,8,0,0,1,3.35,6.37v80c0,2.45-1.5,3.58-3.35,2.52L66.1,245.94a8,8,0,0,1-3.35-6.37Z"/><path class="cls-16" d="M163.77,296.74l-93.19-53c-1.48-.84-3-3.31-3.44-5.49L54.07,168.63l-3.48-2c-.14-.08-.15-.2,0-.27l3.38-1.92a1.35,1.35,0,0,1,.49-.16,1.49,1.49,0,0,1,1.28.23l98.15,55.77a8.9,8.9,0,0,1,3.44,5.5l13.39,71.33c.27,1.44,0,2.4-.67,2.65l-3.15,1.79a1.86,1.86,0,0,1-1.64-.06l-4.68-2.66c-.14-.08-.15-.19,0-.26l3.25-1.85Z"/><path class="cls-17" d="M152.31,226.66a9.06,9.06,0,0,0-3.46-5.58L50.09,164.53c-1.5-.86-2.38.25-2,2.46l13.47,72.33c.41,2.22,2,4.71,3.46,5.57l98.76,56.56c1.5.85,2.38-.25,2-2.47l-13.46-72.32Z"/></svg>