<svg id="Layer_1" data-name="Layer 1" xmlns="http://www.w3.org/2000/svg" xmlns:xlink="http://www.w3.org/1999/xlink" viewBox="0 0 350 350"><defs><style>.cls-1{fill:#eff6ff;}.cls-2{fill:url(#linear-gradient);}.cls-3{fill:#f1f7ff;}.cls-4{fill:#d9e7fb;}.cls-5{fill:#b2c6e2;}.cls-6{fill:#120078;}.cls-7{fill:none;stroke-linecap:round;stroke-width:3px;stroke:url(#linear-gradient-2);}.cls-8{fill:url(#linear-gradient-3);}.cls-9{fill:#d8d8d8;stroke:#979797;}.cls-11,.cls-9{fill-rule:evenodd;}.cls-10{fill:url(#linear-gradient-4);}.cls-11{fill:#fff;}.cls-12{fill:url(#linear-gradient-5);}.cls-13{fill:url(#linear-gradient-6);}.cls-14{fill:url(#linear-gradient-7);}.cls-15{fill:#112da6;}.cls-16{fill:#7ea8f7;}</style><linearGradient id="linear-gradient" x1="159.82" y1="189.25" x2="159.85" y2="190.62" gradientTransform="matrix(241.87, 0, 0, -241.87, -38485.13, 46169.36)" gradientUnits="userSpaceOnUse"><stop offset="0" stop-color="#fff"/><stop offset="1" stop-color="#eff6ff"/></linearGradient><linearGradient id="linear-gradient-2" x1="174.45" y1="185.64" x2="174.41" y2="184.65" gradientTransform="matrix(-8.77, 1.78, 8.56, 42.22, 93.48, -8008.14)" gradientUnits="userSpaceOnUse"><stop offset="0" stop-color="#8bbbff" stop-opacity="0"/><stop offset="1" stop-color="#8bbbff"/></linearGradient><linearGradient id="linear-gradient-3" x1="158.95" y1="191.19" x2="159.76" y2="190.69" gradientTransform="matrix(134.5, 0, 0, -104.05, -21313.53, 20051.73)" gradientUnits="userSpaceOnUse"><stop offset="0" stop-color="#0643cf"/><stop offset="1" stop-color="#120078"/></linearGradient><linearGradient id="linear-gradient-4" x1="159.07" y1="190.6" x2="159.71" y2="190.18" gradientTransform="matrix(144.61, 0, 0, -179.52, -22817.92, 34360.77)" gradientUnits="userSpaceOnUse"><stop offset="0" stop-color="#8bbbff"/><stop offset="1" stop-color="#0260f5"/></linearGradient><linearGradient id="linear-gradient-5" x1="158.9" y1="197.6" x2="159.88" y2="197.59" gradientTransform="matrix(144.3, 0, 0, -19.95, -22795.77, 4202.23)" gradientUnits="userSpaceOnUse"><stop offset="0" stop-color="#0643cf"/><stop offset="1" stop-color="#0e1593"/></linearGradient><linearGradient id="linear-gradient-6" x1="153.49" y1="197.54" x2="154.47" y2="197.27" gradientTransform="matrix(24.93, 0, 0, -19.95, -3537.29, 4042.66)" xlink:href="#linear-gradient-5"/><linearGradient id="linear-gradient-7" x1="158.76" y1="190.78" x2="158.76" y2="191.76" gradientTransform="matrix(91.14, 0, 0, -91.14, -14385.86, 17669.42)" xlink:href="#linear-gradient"/></defs><path class="cls-1" d="M175,3.6V26a149,149,0,1,0,0,298v22.39A171.4,171.4,0,1,1,175,3.6ZM305.77,285.79l-17.08-14.48A149,149,0,0,0,272.77,62.55l14.7-16.89a171.41,171.41,0,0,1,18.3,240.13ZM3,3"/><circle class="cls-2" cx="174.99" cy="174.99" r="118.86"/><rect class="cls-3" x="278.71" y="280.13" width="49.06" height="5.82" rx="0.98"/><rect class="cls-4" x="256.25" y="280.13" width="14.14" height="5.82" rx="0.98"/><rect class="cls-3" x="292.01" y="293.43" width="49.06" height="5.82" rx="0.98"/><rect class="cls-4" x="278.71" y="306.74" width="33.26" height="5.82" rx="0.98"/><rect class="cls-3" x="59.17" y="32.31" width="49.06" height="5.82" rx="0.98"/><rect class="cls-4" x="36.71" y="32.31" width="14.14" height="5.82" rx="0.98"/><rect class="cls-3" x="72.47" y="45.62" width="49.06" height="5.82" rx="0.98"/><rect class="cls-4" x="59.17" y="58.92" width="33.26" height="5.82" rx="0.98"/><path class="cls-5" d="M133.47,59.75c2.57,0,4.08,1.36,4.08,3.8,0,2.19-1.14,3.62-2.38,5L133,70.84h4.66v2.44h-8.24V71.12l3.67-4c1.29-1.39,1.73-2.09,1.73-3.41,0-.92-.46-1.48-1.26-1.48-1,0-1.39.7-1.41,1.88l-2.74-.16C129.41,61.32,130.89,59.75,133.47,59.75Zm13.07,8.75h2v2.44h-2v2.34h-2.48V70.94h-5.4V68.68l5.7-8.73h2.18V68.5Zm-5.08,0H144V64.56l-2.58,3.94Zm10.32,6h-2.73L153.59,60h2.71l-4.52,14.52Zm13.75-12.31-5.2,11.12h-3l5.2-10.91h-5.75V60h8.76v2.21Z"/><circle class="cls-6" cx="147.67" cy="87.2" r="3.33"/><path class="cls-7" d="M147.45,140.49l.22-43.24"/><path class="cls-8" d="M56.71,123.32H97.12c5.24,0,14.24,15.34,17.66,15.34H174c7.76,0,7.47,6.81,7.47,6.81v73.29c0,3.41-1.71,6.82-6.84,6.82H56.1c-4.49,0-6.84-2.31-6.84-6.82V130.14s-.7-6.82,7.46-6.82Z"/><path class="cls-9" d="M182.33,131.57v6.37h82.33v-6.37Z"/><path class="cls-10" d="M159.78,249.58v-143q1.78-12.3,19.54-12.31H301.91q-10.68,1.77-10.67,21.18V256.65q-1.78,14.1-17.77,14.11H159.78V249.58Z"/><path class="cls-11" d="M181.84,143.33h83.31v7.35H181.84Zm0-19.6h83.31v7.35H181.84Z"/><path class="cls-11" d="M221,165.39h0a29.4,29.4,0,0,1,29.41,29.4h0A29.41,29.41,0,0,1,221,224.2h0a29.4,29.4,0,0,1-29.4-29.41h0A29.4,29.4,0,0,1,221,165.39Z"/><path class="cls-12" d="M133,251.15H267.58q0,19.61,7.07,19.61H147.17Q131.24,270.76,133,251.15Z"/><path class="cls-13" d="M289.66,113.93h24.5q0-19.61-12.25-19.61T289.66,113.93Z"/><circle class="cls-14" cx="83.7" cy="237.3" r="44.79"/><path class="cls-15" d="M217.72,209.6l-12-12a3.5,3.5,0,0,1,5-4.95l7.07,7.08,17-17a3.5,3.5,0,1,1,4.95,5Z"/><path class="cls-16" d="M69,171.14v11.7h7.3v9.34a46.77,46.77,0,1,0,43.35,16.37l6.34-6.34,5.17,5.16,6.2-6.2L120.8,184.63l-6.2,6.21,5.16,5.16-6.34,6.35a46.59,46.59,0,0,0-22.53-10.18v-9.34H98.2V171.14H69ZM83.6,203.3a34.94,34.94,0,0,1,24.8,10.28l.59.6h0l.58.62h0c.19.2.37.41.56.63h0l.54.64h0c.18.22.36.43.53.65h0l.51.67h0l.5.68h0l.48.7h0c.16.23.31.47.46.7h0q.24.36.45.72h0c.15.24.29.49.43.73h0c.15.24.28.49.42.74h0c.13.25.27.5.39.75h0l.38.76h0c.13.26.24.51.36.77h0c.12.26.23.52.34.78h0l.33.79h0l.3.8h0c.1.27.2.54.29.81h0l.27.82h0l.24.83h0c.08.28.16.55.23.83h0l.21.85h0c.06.28.13.57.18.85h0c.06.29.12.57.17.86h0c0,.29.1.58.14.87h0l.12.87h0c0,.29.07.58.1.88h0c0,.29.06.59.08.89h0c0,.29,0,.59,0,.89h0c0,.3,0,.6,0,.9s0,.6,0,.9h0a35.09,35.09,0,1,1-70.17,0c0-.3,0-.6,0-.9A35,35,0,0,1,52,223.15c.25-.51.51-1,.77-1.51a35.53,35.53,0,0,1,4.89-6.87c.37-.42.76-.82,1.16-1.22A35,35,0,0,1,83.6,203.28h0Z"/></svg>