<svg width="75" height="72" xmlns="http://www.w3.org/2000/svg" xmlns:xlink="http://www.w3.org/1999/xlink"><defs><circle id="a" cx="36" cy="36" r="36"/></defs><g transform="translate(1)" fill="none" fill-rule="evenodd"><mask id="b" fill="#fff"><use xlink:href="#a"/></mask><use fill="#0D9DA2" opacity=".1" xlink:href="#a"/><g mask="url(#b)"><path d="M16.529 60.628l-13.5 36.23 2.8 1.104s10.5-16.259 21.1-34.925c9.9-17.563-10.4-2.409-10.4-2.409z" fill="#F8B68F"/><path d="M16.529 60.628s6.9-16.057 16.2-16.057c9.3 0-.9 1.204 11 0 8.1-.803 15.3 13.347 15.3 13.347l-9.1 4.918-1 21.878h-21.8l-1.2-21.176-9.4-2.91z" fill="#01898C"/><path d="M32.729 38.148v6.523h.1a7.828 7.828 0 008.8.301l.4-.301-1.4-7.527-7.9 1.004z" fill="#F4A086"/><path d="M28.329 24.499s-.5 14.652 7.8 14.652c8.4 0 8.4-15.957 8.4-15.957l-7.3-7.326-8.9 8.63z" fill="#F8B68F"/><path d="M38.329 19.882s-3.1 5.119-6.5 7.226c-1.7 1.004-2.5 3.01-2.1 4.918.5 2.408 3.4 4.516 3 6.824-.6 3.713 1.2 7.527 3.3 10.638 6.4 9.534.3 25.19-8.6 25.19-10 0-8.7-11.842-8-13.95.8-2.308.2-4.917-1.6-6.523-1.3-1.204-2.5-2.71-2.5-4.416 0-2.007 1.8-5.52 3.5-8.33 1.7-2.81 3.6-8.63 3.9-11.942 1.8-16.66 13.4-16.66 14-16.66 5.8.502 11 5.42 11.1 11.24.1 6.724 2.2 20.574 4 23.083-6 2.61-13.7-1.606-11.5-11.14.4-1.907 4.1-7.025 3.9-8.63-.7-6.424-5.9-7.528-5.9-7.528z" fill="#212B53"/><path d="M39.229 23.696c-1.1.702-2.2 1.305-3.4 1.907-1.1 1.605-2.4 3.01-3.9 4.215.7 2.308 1.1 4.616 1 6.925 0 .501-.1 1.003-.1 1.505.9.702 2.1 1.004 3.4 1.004 5.7 0 7.5-7.527 8.1-12.244-2-.803-3.6-2.007-5.1-3.312z" fill="#F8B68F"/><path d="M42.429 29.918c-.6-.602-.5-1.706.3-2.509.7-.803 1.8-.903 2.4-.3.6.601.5 1.705-.3 2.508-.8.703-1.9.903-2.4.301zM58.929 57.918s10.9 20.775 6.3 23.785c-3.067 2.008-5.167 1.501-6.3-1.52l-5.3-9.017-3.8-8.33 9.1-4.918z" fill="#F8B68F"/></g></g></svg>