<svg width="15" height="15" xmlns="http://www.w3.org/2000/svg"><path d="M13.876 13.275l-3.457-3.457a5.308 5.308 0 001.279-3.47 5.314 5.314 0 00-1.567-3.781A5.314 5.314 0 006.349 1a5.314 5.314 0 00-3.782 1.567A5.313 5.313 0 001 6.349c0 1.429.556 2.772 1.567 3.782a5.313 5.313 0 003.782 1.567 5.308 5.308 0 003.469-1.28l3.457 3.458a.424.424 0 00.6 0 .425.425 0 000-.601zm-7.527-2.427A4.47 4.47 0 013.167 9.53 4.47 4.47 0 011.85 6.35a4.47 4.47 0 011.318-3.182A4.47 4.47 0 016.35 1.85 4.47 4.47 0 019.53 3.168a4.47 4.47 0 011.318 3.18A4.47 4.47 0 019.53 9.53a4.47 4.47 0 01-3.181 1.318z" fill="#333846" fill-rule="nonzero" stroke="#333846" stroke-width=".5" opacity=".5"/></svg>